<?xml version="1.0" encoding="UTF-8"?>
<svg xmlns="http://www.w3.org/2000/svg" xmlns:xlink="http://www.w3.org/1999/xlink" width="142pt" height="42pt" viewBox="0 0 142 42" version="1.1">
<g id="surface1">
<path style=" stroke:none;fill-rule:nonzero;fill:rgb(100%,100%,100%);fill-opacity:1;" d="M 6.25 18.886719 L 8.378906 17.828125 L 11.746094 12.753906 L 12.773438 12.332031 L 13.875 17.476562 L 12.433594 17.6875 L 11.332031 15.574219 L 10.507812 18.886719 L 14.148438 18.886719 L 17.925781 19.871094 L 19.4375 18.886719 L 21.980469 21.5625 L 23.078125 16.632812 L 24.863281 18.464844 L 25.960938 16.914062 L 27.75 16.417969 L 30.359375 13.953125 L 30.769531 12.753906 L 32.898438 13.105469 L 33.792969 14.304688 L 32.210938 17.6875 L 36.128906 15.644531 L 36.128906 14.65625 L 37.636719 14.304688 L 39.285156 15.996094 L 40.933594 13.953125 L 40.933594 12.542969 L 43.613281 10.640625 L 44.714844 9.019531 L 46.429688 9.019531 L 49.453125 2.75 L 52.0625 0 L 53.023438 1.550781 L 51.511719 3.523438 L 52.0625 4.792969 L 53.503906 5.074219 L 54.671875 10.289062 L 54.671875 14.65625 L 56.734375 17.546875 L 57.761719 21.5625 L 54.191406 19.238281 L 52.613281 12.542969 L 51.648438 12.753906 L 51.511719 17.265625 L 48.902344 21.5625 L 48.148438 28.117188 L 49.933594 28.539062 L 50.6875 27.625 L 52.40625 29.597656 L 53.710938 35.515625 L 53.574219 39.320312 L 51.925781 39.320312 L 51.304688 33.964844 L 50.140625 35.585938 L 47.597656 35.023438 L 45.535156 33.261719 L 43.203125 34.105469 L 43.339844 37.914062 L 41.484375 38.40625 L 38.738281 40.519531 L 35.441406 40.097656 L 34.136719 39.320312 L 32.074219 39.675781 L 32.761719 40.519531 L 31.113281 41.507812 L 29.808594 40.871094 L 27.335938 42 L 23.558594 40.097656 L 22.117188 36.714844 L 20.878906 36.855469 L 19.4375 35.65625 L 19.367188 34.742188 L 14.765625 34.25 L 14.011719 36.785156 L 11.125 35.445312 L 9.683594 32.980469 L 6.59375 32.980469 L 6.25 36.925781 L 4.464844 37.488281 L 3.570312 41.082031 L 2.882812 40.449219 L 0 32.910156 L 3.433594 31.21875 L 2.882812 27.90625 L 2.335938 24.523438 L 3.847656 22.339844 L 3.367188 21 L 5.425781 18.746094 Z M 51.925781 27.203125 L 55.085938 31.992188 L 56.113281 31.570312 L 54.808594 29.597656 L 51.925781 26.496094 Z M 19.644531 17.476562 L 19.644531 16.066406 L 22.046875 14.304688 L 24.109375 13.25 L 21.703125 13.25 L 19.574219 14.515625 L 18.269531 15.714844 L 18.269531 17.476562 Z M 19.644531 17.476562 "/>
<path style=" stroke:none;fill-rule:nonzero;fill:rgb(100%,100%,100%);fill-opacity:1;" d="M 72.304688 33.117188 L 76.105469 33.117188 L 76.105469 28.929688 L 78.210938 28.929688 C 81.40625 28.929688 83.542969 27.039062 83.542969 24 C 83.542969 21 81.460938 19.019531 78.347656 19.019531 L 72.304688 19.019531 Z M 76.105469 25.957031 L 76.105469 22.074219 L 77.445312 22.074219 C 78.777344 22.074219 79.578125 22.789062 79.578125 24 C 79.578125 25.207031 78.777344 25.957031 77.445312 25.957031 Z M 76.105469 25.957031 "/>
<path style=" stroke:none;fill-rule:nonzero;fill:rgb(100%,100%,100%);fill-opacity:1;" d="M 89.828125 33.308594 C 93.246094 33.308594 95.269531 31.105469 95.269531 27.855469 C 95.269531 24.609375 93.246094 22.40625 89.828125 22.40625 C 86.410156 22.40625 84.386719 24.609375 84.386719 27.855469 C 84.386719 31.105469 86.410156 33.308594 89.828125 33.308594 Z M 89.855469 30.5 C 88.84375 30.5 88.242188 29.488281 88.242188 27.828125 C 88.242188 26.171875 88.84375 25.15625 89.855469 25.15625 C 90.8125 25.15625 91.414062 26.171875 91.414062 27.828125 C 91.414062 29.488281 90.8125 30.5 89.855469 30.5 Z M 89.855469 30.5 "/>
<path style=" stroke:none;fill-rule:nonzero;fill:rgb(100%,100%,100%);fill-opacity:1;" d="M 101.863281 33.308594 C 104.972656 33.308594 106.878906 31.511719 106.921875 28.710938 L 103.421875 28.710938 C 103.339844 29.820312 102.742188 30.417969 101.917969 30.417969 C 100.925781 30.417969 100.273438 29.5625 100.273438 27.828125 C 100.273438 26.09375 100.925781 25.242188 101.917969 25.242188 C 102.75 25.242188 103.316406 25.839844 103.421875 26.949219 L 106.921875 26.949219 C 106.902344 24.195312 104.953125 22.40625 101.863281 22.40625 C 98.441406 22.40625 96.417969 24.609375 96.417969 27.855469 C 96.417969 31.105469 98.441406 33.308594 101.863281 33.308594 Z M 101.863281 33.308594 "/>
<path style=" stroke:none;fill-rule:nonzero;fill:rgb(100%,100%,100%);fill-opacity:1;" d="M 113.539062 33.308594 C 116.648438 33.308594 118.558594 31.511719 118.597656 28.710938 L 115.097656 28.710938 C 115.015625 29.820312 114.421875 30.417969 113.59375 30.417969 C 112.601562 30.417969 111.953125 29.5625 111.953125 27.828125 C 111.953125 26.09375 112.601562 25.242188 113.59375 25.242188 C 114.425781 25.242188 114.996094 25.839844 115.097656 26.949219 L 118.597656 26.949219 C 118.578125 24.195312 116.628906 22.40625 113.539062 22.40625 C 110.121094 22.40625 108.09375 24.609375 108.09375 27.855469 C 108.09375 31.105469 110.121094 33.308594 113.539062 33.308594 Z M 113.539062 33.308594 "/>
<path style=" stroke:none;fill-rule:nonzero;fill:rgb(100%,100%,100%);fill-opacity:1;" d="M 123.710938 28.269531 L 123.710938 22.542969 L 120.15625 22.542969 L 120.15625 33.117188 L 123.710938 33.117188 L 126.636719 27.359375 L 126.636719 33.117188 L 130.191406 33.117188 L 130.191406 22.542969 L 126.636719 22.542969 Z M 123.710938 28.269531 "/>
<path style=" stroke:none;fill-rule:nonzero;fill:rgb(100%,100%,100%);fill-opacity:1;" d="M 138.160156 33.117188 L 141.660156 33.117188 L 141.660156 22.542969 L 136.738281 22.542969 C 133.707031 22.542969 131.792969 24.085938 131.8125 26.230469 C 131.800781 27.4375 132.515625 28.433594 133.777344 29.027344 L 131.703125 33.117188 L 135.175781 33.117188 L 136.949219 29.617188 L 138.160156 29.617188 Z M 138.160156 27.332031 L 136.816406 27.332031 C 135.8125 27.332031 135.347656 26.835938 135.367188 26.371094 C 135.347656 25.929688 135.785156 25.378906 136.738281 25.378906 L 138.160156 25.378906 Z M 138.160156 27.332031 "/>
</g>
</svg>
